<svg width="160" height="160" viewBox="0 0 160 160" fill="none" xmlns="http://www.w3.org/2000/svg">
<path d="M20 80H80V90H20V80Z" fill="#FCE61D"/>
<path d="M10 55H60V65H10V55Z" fill="#FCE61D"/>
<path d="M149.595 83.03L134.595 48.03C134.21 47.1304 133.569 46.3637 132.752 45.825C131.935 45.2863 130.978 44.9995 130 45H115V35C115 33.6739 114.473 32.4021 113.535 31.4645C112.598 30.5268 111.326 30 110 30H29.9998V40H105V102.78C102.722 104.103 100.728 105.864 99.1331 107.961C97.5387 110.059 96.3752 112.451 95.7098 115H64.2898C63.0729 110.287 60.1787 106.179 56.1498 103.447C52.1209 100.715 47.2339 99.546 42.4048 100.159C37.5758 100.773 33.1362 103.126 29.9182 106.779C26.7003 110.431 24.9249 115.132 24.9249 120C24.9249 124.868 26.7003 129.569 29.9182 133.221C33.1362 136.874 37.5758 139.227 42.4048 139.841C47.2339 140.454 52.1209 139.285 56.1498 136.553C60.1787 133.821 63.0729 129.713 64.2898 125H95.7098C96.7975 129.291 99.285 133.097 102.779 135.816C106.272 138.535 110.573 140.011 115 140.011C119.427 140.011 123.727 138.535 127.221 135.816C130.715 133.097 133.202 129.291 134.29 125H145C146.326 125 147.598 124.473 148.535 123.536C149.473 122.598 150 121.326 150 120V85C150 84.3226 149.862 83.6523 149.595 83.03ZM44.9998 130C43.022 130 41.0886 129.414 39.4441 128.315C37.7997 127.216 36.5179 125.654 35.761 123.827C35.0042 122 34.8061 119.989 35.192 118.049C35.5778 116.109 36.5302 114.327 37.9288 112.929C39.3273 111.53 41.1091 110.578 43.0489 110.192C44.9888 109.806 46.9994 110.004 48.8267 110.761C50.6539 111.518 52.2157 112.8 53.3145 114.444C54.4134 116.089 54.9998 118.022 54.9998 120C54.9972 122.651 53.9428 125.193 52.068 127.068C50.1932 128.943 47.6512 129.997 44.9998 130ZM115 55H126.7L137.42 80H115V55ZM115 130C113.022 130 111.089 129.414 109.444 128.315C107.8 127.216 106.518 125.654 105.761 123.827C105.004 122 104.806 119.989 105.192 118.049C105.578 116.109 106.53 114.327 107.929 112.929C109.327 111.53 111.109 110.578 113.049 110.192C114.989 109.806 116.999 110.004 118.827 110.761C120.654 111.518 122.216 112.8 123.315 114.444C124.413 116.089 125 118.022 125 120C124.997 122.651 123.943 125.193 122.068 127.068C120.193 128.943 117.651 129.997 115 130ZM140 115H134.29C133.188 110.717 130.697 106.921 127.206 104.206C123.715 101.492 119.422 100.012 115 100V90H140V115Z" fill="#FCE61D"/>
</svg>
