<svg width="160" height="160" viewBox="0 0 160 160" fill="none" xmlns="http://www.w3.org/2000/svg">
<g clip-path="url(#clip0_58_22)">
<path d="M47.5 25V10C47.5 8.01088 48.2902 6.10322 49.6967 4.6967C51.1032 3.29018 53.0109 2.5 55 2.5C56.9891 2.5 58.8968 3.29018 60.3033 4.6967C61.7098 6.10322 62.5 8.01088 62.5 10V25C62.5 26.9891 61.7098 28.8968 60.3033 30.3033C58.8968 31.7098 56.9891 32.5 55 32.5C53.0109 32.5 51.1032 31.7098 49.6967 30.3033C48.2902 28.8968 47.5 26.9891 47.5 25ZM80 32.5C81.9891 32.5 83.8968 31.7098 85.3033 30.3033C86.7098 28.8968 87.5 26.9891 87.5 25V10C87.5 8.01088 86.7098 6.10322 85.3033 4.6967C83.8968 3.29018 81.9891 2.5 80 2.5C78.0109 2.5 76.1032 3.29018 74.6967 4.6967C73.2902 6.10322 72.5 8.01088 72.5 10V25C72.5 26.9891 73.2902 28.8968 74.6967 30.3033C76.1032 31.7098 78.0109 32.5 80 32.5ZM105 32.5C106.989 32.5 108.897 31.7098 110.303 30.3033C111.71 28.8968 112.5 26.9891 112.5 25V10C112.5 8.01088 111.71 6.10322 110.303 4.6967C108.897 3.29018 106.989 2.5 105 2.5C103.011 2.5 101.103 3.29018 99.6967 4.6967C98.2902 6.10322 97.5 8.01088 97.5 10V25C97.5 26.9891 98.2902 28.8968 99.6967 30.3033C101.103 31.7098 103.011 32.5 105 32.5ZM157 66L140 78.75V115C139.993 120.965 137.621 126.684 133.403 130.903C129.184 135.121 123.465 137.493 117.5 137.5H42.5C36.5347 137.493 30.8155 135.121 26.5974 130.903C22.3793 126.684 20.0066 120.965 20 115V78.75L3 66C1.4087 64.8065 0.356683 63.0298 0.0753789 61.0607C-0.205926 59.0915 0.306526 57.0913 1.5 55.5C2.69347 53.9087 4.47021 52.8567 6.43934 52.5754C8.40847 52.2941 10.4087 52.8065 12 54L20 60V55C20.0036 51.6859 21.3218 48.5086 23.6652 46.1652C26.0086 43.8218 29.1859 42.5036 32.5 42.5H127.5C130.814 42.5036 133.991 43.8218 136.335 46.1652C138.678 48.5086 139.996 51.6859 140 55V60L148 54C149.591 52.8065 151.592 52.2941 153.561 52.5754C155.53 52.8567 157.307 53.9087 158.5 55.5C159.693 57.0913 160.206 59.0915 159.925 61.0607C159.643 63.0298 158.591 64.8065 157 66ZM125 57.5H35V115C35.0023 116.988 35.7932 118.895 37.1993 120.301C38.6053 121.707 40.5116 122.498 42.5 122.5H117.5C119.488 122.498 121.395 121.707 122.801 120.301C124.207 118.895 124.998 116.988 125 115V57.5Z" fill="#FCE61D"/>
</g>
<defs>
<clipPath id="clip0_58_22">
<rect width="160" height="160" fill="white"/>
</clipPath>
</defs>
</svg>
