<svg width="40" height="40" viewBox="0 0 40 40" fill="none" xmlns="http://www.w3.org/2000/svg">
<g clip-path="url(#clip0_39_103)">
<path d="M20 40C31.0457 40 40 31.0457 40 20C40 8.9543 31.0457 0 20 0C8.9543 0 0 8.9543 0 20C0 31.0457 8.9543 40 20 40Z" fill="#77B255"/>
<path d="M28.8889 20C28.8889 26.72 31.9911 31.3567 35.3356 32.8289C38.3534 29.2358 40.0054 24.6924 40 20C40 15.1156 38.2444 10.6445 35.3356 7.17114C31.9911 8.64336 28.8889 13.28 28.8889 20Z" fill="#A6D388"/>
<path d="M30 20C30 13.28 31.9911 8.64333 35.3355 7.17111C34.839 6.58423 34.3092 6.02628 33.7489 5.5C30.4511 7.33889 27.7778 11.7533 27.7778 20C27.7778 28.2456 30.4511 32.6611 33.7489 34.5C34.3067 33.9711 34.8422 33.4189 35.3355 32.8289C31.9911 31.3567 30 26.72 30 20Z" fill="white"/>
<path d="M11.1111 20C11.1111 13.28 8.0089 8.64448 4.66446 7.17114C1.64656 10.7642 -0.00539677 15.3077 1.32459e-05 20C1.32459e-05 24.8845 1.75557 29.3556 4.66446 32.8289C8.0089 31.3556 11.1111 26.72 11.1111 20Z" fill="#A6D388"/>
<path d="M4.66443 7.1711C8.00887 8.64443 9.99998 13.28 9.99998 20C9.99998 26.72 8.00887 31.3555 4.66443 32.8289C5.15887 33.4189 5.69332 33.97 6.2511 34.5C9.54776 32.6611 12.2222 28.2455 12.2222 20C12.2222 11.7544 9.54887 7.33888 6.2511 5.5011C5.69046 6.02671 5.16068 6.58431 4.66443 7.1711Z" fill="white"/>
</g>
<defs>
<clipPath id="clip0_39_103">
<rect width="40" height="40" fill="white"/>
</clipPath>
</defs>
</svg>
