<svg width="40" height="40" viewBox="0 0 40 40" fill="none" xmlns="http://www.w3.org/2000/svg">
<path d="M25.57 27.0244L19.4078 20.8622L13.2444 14.7C13.2444 14.7 13.75 27.1255 0.81889 30.3588C0.81889 30.3588 1.96556 33.1222 4.55667 35.7133C7.14778 38.3044 9.91111 39.4511 9.91111 39.4511C13.1444 26.5188 25.57 27.0244 25.57 27.0244Z" fill="#77B255"/>
<path d="M15.3667 18.4378C14.5589 22.4789 9.70889 28.9445 9.70889 28.9445L19.4067 19.2467C22.6389 16.0145 15.3667 18.4378 15.3667 18.4378ZM29.1056 25.7112C29.1056 25.7112 16.9833 26.5189 9.70889 32.1767C18.5989 23.2867 22.64 22.4789 22.64 22.4789L29.1056 25.7112Z" fill="#5C913B"/>
<path d="M33.5067 31.3245C33.8855 31.3526 34.2659 31.2989 34.6221 31.167C34.9783 31.0351 35.302 30.8281 35.5711 30.56C36.0712 30.0599 36.3521 29.3817 36.3521 28.6745C36.3521 27.9672 36.0712 27.289 35.5711 26.7889C35.4767 26.6945 35.3711 26.6178 35.2667 26.54C35.7385 26.4275 36.1702 26.1872 36.5144 25.8456C36.8448 25.512 37.0799 25.0961 37.1956 24.6411C37.6504 24.5251 38.0662 24.29 38.4 23.96C38.9001 23.4599 39.181 22.7817 39.181 22.0745C39.181 21.3672 38.9001 20.689 38.4 20.1889C38.7422 19.8466 38.9848 19.4176 39.1017 18.948C39.2187 18.4783 39.2056 17.9856 39.0639 17.5228C38.9222 17.06 38.6572 16.6445 38.2973 16.3209C37.9375 15.9972 37.4963 15.7776 37.0211 15.6856C37.2624 15.1891 37.3433 14.6298 37.2525 14.0853C37.1617 13.5408 36.9038 13.038 36.5144 12.6467C36.1702 12.305 35.7385 12.0647 35.2667 11.9522C35.3711 11.8745 35.4767 11.7978 35.5711 11.7033C36.0712 11.2032 36.3521 10.525 36.3521 9.81779C36.3521 9.11057 36.0712 8.43232 35.5711 7.93223C35.18 7.54246 34.6772 7.28422 34.1326 7.19342C33.588 7.10261 33.0286 7.18375 32.5322 7.42556C32.4095 6.78775 32.057 6.21716 31.5415 5.82207C31.026 5.42698 30.3833 5.23488 29.7356 5.28223C29.7637 4.90343 29.71 4.52301 29.5781 4.1668C29.4462 3.81059 29.2392 3.48692 28.9711 3.21779C28.471 2.71773 27.7928 2.4368 27.0856 2.4368C26.3783 2.4368 25.7001 2.71773 25.2 3.21779C24.8089 2.82801 24.3061 2.56977 23.7615 2.47897C23.2169 2.38817 22.6575 2.46931 22.1611 2.71112C22.0431 2.10343 21.7174 1.55572 21.2398 1.16191C20.7621 0.768104 20.1624 0.552734 19.5433 0.552734C18.9243 0.552734 18.3245 0.768104 17.8469 1.16191C17.3693 1.55572 17.0435 2.10343 16.9256 2.71112C16.4291 2.4698 15.8698 2.38893 15.3253 2.47972C14.7808 2.5705 14.278 2.82844 13.8867 3.21779C13.545 3.56205 13.3047 3.99376 13.1922 4.46556C13.1144 4.36112 13.0378 4.25556 12.9433 4.16112C12.4432 3.66106 11.765 3.38013 11.0578 3.38013C10.3506 3.38013 9.67231 3.66106 9.17222 4.16112C8.78218 4.55176 8.52357 5.05425 8.43237 5.59869C8.34116 6.14314 8.42189 6.70247 8.66333 7.1989C8.18815 7.29093 7.74698 7.51055 7.38712 7.83421C7.02725 8.15788 6.76226 8.57338 6.62055 9.03618C6.47884 9.49898 6.46577 9.99162 6.58272 10.4613C6.69968 10.931 6.94225 11.3599 7.28444 11.7022C7.64111 12.0589 8.07556 12.2845 8.53222 12.3967C8.42778 12.4745 8.32222 12.5511 8.22778 12.6456C7.88559 12.9879 7.64301 13.4168 7.52606 13.8865C7.4091 14.3562 7.42218 14.8488 7.56388 15.3116C7.70559 15.7744 7.97058 16.1899 8.33045 16.5136C8.69032 16.8372 9.13149 17.0569 9.60667 17.1489C9.36535 17.6454 9.28448 18.2047 9.37526 18.7492C9.46605 19.2937 9.72399 19.7964 10.1133 20.1878C10.5044 20.5776 11.0072 20.8358 11.5518 20.9266C12.0965 21.0174 12.6558 20.9363 13.1522 20.6945C13.2476 21.194 13.4852 21.6554 13.8364 22.0232C14.1877 22.3909 14.6376 22.6495 15.1322 22.7678C15.0278 22.8456 14.9222 22.9222 14.8278 23.0167C14.3277 23.5168 14.0468 24.195 14.0468 24.9022C14.0468 25.6094 14.3277 26.2877 14.8278 26.7878C15.2189 27.1776 15.7217 27.4358 16.2663 27.5266C16.8109 27.6174 17.3703 27.5363 17.8667 27.2945C17.9363 27.6562 18.0805 27.9996 18.2901 28.3026C18.4997 28.6056 18.7701 28.8616 19.0841 29.0543C19.3981 29.2471 19.7488 29.3723 20.1138 29.4221C20.4789 29.4718 20.8503 29.445 21.2044 29.3433C21.2756 29.4367 21.3422 29.5311 21.4278 29.6167C21.9944 30.1833 22.7511 30.43 23.4922 30.3811C23.4641 30.7599 23.5178 31.1403 23.6497 31.4966C23.7816 31.8528 23.9886 32.1764 24.2567 32.4456C24.7568 32.9456 25.435 33.2266 26.1422 33.2266C26.8494 33.2266 27.5277 32.9456 28.0278 32.4456C28.1222 32.3511 28.1989 32.2456 28.2767 32.1411C28.3889 32.5978 28.6144 33.0322 28.9711 33.3889C29.4712 33.889 30.1495 34.1699 30.8567 34.1699C31.5639 34.1699 32.2421 33.889 32.7422 33.3889C33.3089 32.8222 33.5556 32.0656 33.5067 31.3245Z" fill="#3E721D"/>
<path d="M12.1333 8.02886C13.0802 8.02886 13.8478 7.26128 13.8478 6.31442C13.8478 5.36756 13.0802 4.59998 12.1333 4.59998C11.1865 4.59998 10.4189 5.36756 10.4189 6.31442C10.4189 7.26128 11.1865 8.02886 12.1333 8.02886Z" fill="#5C913B"/>
<path d="M16.9833 8.02886C17.9302 8.02886 18.6978 7.26128 18.6978 6.31442C18.6978 5.36756 17.9302 4.59998 16.9833 4.59998C16.0365 4.59998 15.2689 5.36756 15.2689 6.31442C15.2689 7.26128 16.0365 8.02886 16.9833 8.02886Z" fill="#5C913B"/>
<path d="M20.2156 4.79669C21.1624 4.79669 21.93 4.0291 21.93 3.08224C21.93 2.13538 21.1624 1.3678 20.2156 1.3678C19.2687 1.3678 18.5011 2.13538 18.5011 3.08224C18.5011 4.0291 19.2687 4.79669 20.2156 4.79669Z" fill="#5C913B"/>
<path d="M24.2567 7.22112C25.2035 7.22112 25.9711 6.45354 25.9711 5.50668C25.9711 4.55982 25.2035 3.79224 24.2567 3.79224C23.3098 3.79224 22.5422 4.55982 22.5422 5.50668C22.5422 6.45354 23.3098 7.22112 24.2567 7.22112Z" fill="#5C913B"/>
<path d="M27.4889 7.22112C28.4358 7.22112 29.2033 6.45354 29.2033 5.50668C29.2033 4.55982 28.4358 3.79224 27.4889 3.79224C26.542 3.79224 25.7744 4.55982 25.7744 5.50668C25.7744 6.45354 26.542 7.22112 27.4889 7.22112Z" fill="#5C913B"/>
<path d="M28.2978 9.64556C29.2446 9.64556 30.0122 8.87798 30.0122 7.93112C30.0122 6.98426 29.2446 6.21667 28.2978 6.21667C27.3509 6.21667 26.5833 6.98426 26.5833 7.93112C26.5833 8.87798 27.3509 9.64556 28.2978 9.64556Z" fill="#5C913B"/>
<path d="M30.7222 10.4533C31.6691 10.4533 32.4367 9.68572 32.4367 8.73886C32.4367 7.792 31.6691 7.02441 30.7222 7.02441C29.7754 7.02441 29.0078 7.792 29.0078 8.73886C29.0078 9.68572 29.7754 10.4533 30.7222 10.4533Z" fill="#5C913B"/>
<path d="M33.9544 12.07C34.9013 12.07 35.6689 11.3024 35.6689 10.3556C35.6689 9.4087 34.9013 8.64111 33.9544 8.64111C33.0076 8.64111 32.24 9.4087 32.24 10.3556C32.24 11.3024 33.0076 12.07 33.9544 12.07Z" fill="#5C913B"/>
<path d="M33.1467 14.4944C34.0935 14.4944 34.8611 13.7269 34.8611 12.78C34.8611 11.8331 34.0935 11.0656 33.1467 11.0656C32.1998 11.0656 31.4322 11.8331 31.4322 12.78C31.4322 13.7269 32.1998 14.4944 33.1467 14.4944Z" fill="#5C913B"/>
<path d="M35.5711 18.5356C36.518 18.5356 37.2856 17.768 37.2856 16.8211C37.2856 15.8743 36.518 15.1067 35.5711 15.1067C34.6242 15.1067 33.8567 15.8743 33.8567 16.8211C33.8567 17.768 34.6242 18.5356 35.5711 18.5356Z" fill="#5C913B"/>
<path d="M36.3789 22.5767C37.3258 22.5767 38.0933 21.8091 38.0933 20.8623C38.0933 19.9154 37.3258 19.1478 36.3789 19.1478C35.432 19.1478 34.6644 19.9154 34.6644 20.8623C34.6644 21.8091 35.432 22.5767 36.3789 22.5767Z" fill="#5C913B"/>
<path d="M29.9133 14.4944C30.8602 14.4944 31.6278 13.7269 31.6278 12.78C31.6278 11.8331 30.8602 11.0656 29.9133 11.0656C28.9665 11.0656 28.1989 11.8331 28.1989 12.78C28.1989 13.7269 28.9665 14.4944 29.9133 14.4944Z" fill="#5C913B"/>
<path d="M26.6811 11.2623C27.628 11.2623 28.3955 10.4947 28.3955 9.54782C28.3955 8.60096 27.628 7.83337 26.6811 7.83337C25.7342 7.83337 24.9667 8.60096 24.9667 9.54782C24.9667 10.4947 25.7342 11.2623 26.6811 11.2623Z" fill="#5C913B"/>
<path d="M22.64 8.83782C23.5869 8.83782 24.3544 8.07024 24.3544 7.12338C24.3544 6.17652 23.5869 5.40894 22.64 5.40894C21.6931 5.40894 20.9256 6.17652 20.9256 7.12338C20.9256 8.07024 21.6931 8.83782 22.64 8.83782Z" fill="#5C913B"/>
<path d="M17.7911 10.4533C18.738 10.4533 19.5056 9.68572 19.5056 8.73886C19.5056 7.792 18.738 7.02441 17.7911 7.02441C16.8443 7.02441 16.0767 7.792 16.0767 8.73886C16.0767 9.68572 16.8443 10.4533 17.7911 10.4533Z" fill="#5C913B"/>
<path d="M19.4078 8.83782C20.3546 8.83782 21.1222 8.07024 21.1222 7.12338C21.1222 6.17652 20.3546 5.40894 19.4078 5.40894C18.4609 5.40894 17.6933 6.17652 17.6933 7.12338C17.6933 8.07024 18.4609 8.83782 19.4078 8.83782Z" fill="#5C913B"/>
<path d="M14.5578 12.07C15.5046 12.07 16.2722 11.3024 16.2722 10.3556C16.2722 9.4087 15.5046 8.64111 14.5578 8.64111C13.6109 8.64111 12.8433 9.4087 12.8433 10.3556C12.8433 11.3024 13.6109 12.07 14.5578 12.07Z" fill="#5C913B"/>
<path d="M22.64 13.6867C23.5869 13.6867 24.3544 12.9191 24.3544 11.9723C24.3544 11.0254 23.5869 10.2578 22.64 10.2578C21.6931 10.2578 20.9256 11.0254 20.9256 11.9723C20.9256 12.9191 21.6931 13.6867 22.64 13.6867Z" fill="#5C913B"/>
<path d="M28.2978 19.3433C29.2446 19.3433 30.0122 18.5757 30.0122 17.6289C30.0122 16.682 29.2446 15.9144 28.2978 15.9144C27.3509 15.9144 26.5833 16.682 26.5833 17.6289C26.5833 18.5757 27.3509 19.3433 28.2978 19.3433Z" fill="#5C913B"/>
<path d="M29.9133 24.1933C30.8602 24.1933 31.6278 23.4257 31.6278 22.4789C31.6278 21.532 30.8602 20.7644 29.9133 20.7644C28.9665 20.7644 28.1989 21.532 28.1989 22.4789C28.1989 23.4257 28.9665 24.1933 29.9133 24.1933Z" fill="#5C913B"/>
</svg>
