<svg width="40" height="40" viewBox="0 0 40 40" fill="none" xmlns="http://www.w3.org/2000/svg">
<path d="M26.7256 18.6422H21.9678C19.9756 18.6422 17.0611 20.3133 15.89 21.3655C14.8311 22.3167 11.1722 25.0344 11.1722 27.8122C11.1722 33.0522 16.9734 40 16.9734 40H28.2078C28.2078 40 30.43 30.3122 30.43 22.3455C30.43 20.4167 28.7178 18.6422 26.7256 18.6422Z" fill="#9268CA"/>
<path d="M25.0422 19.4367C24.8444 20.6411 23.6233 23.0434 20.5556 26.1111C17.7778 28.8889 14.4444 29.4445 14.4444 29.4445C14.4444 29.4445 10.6033 30.2945 11.4411 26.9445C11.93 24.9867 14.3478 24.9078 16.0589 22.5867C17.7756 20.2578 21.4389 19.1567 22.7778 18.8889C25.5556 18.3334 25.0422 19.4367 25.0422 19.4367Z" fill="#F3D2A2"/>
<path d="M16.0389 26.7577C15.2478 27.3777 14.51 27.3066 13.9733 26.8622C13.0889 26.1288 11.7466 26.0922 11.6489 26.3888C11.6744 27.5288 12.8889 28.0366 13.1111 29.2288C13.1189 29.2699 13.1311 29.3111 13.1411 29.3533C13.77 29.5666 14.4444 29.4444 14.4444 29.4444C14.4444 29.4444 15.08 29.3211 15.71 29.1011C16.5089 26.4866 17.6089 26.4988 18.0044 25.6077C18.1366 25.3077 16.7122 26.2299 16.0389 26.7577Z" fill="#D2A077"/>
<path d="M16.9389 6.67113C17.7434 8.60447 16.8389 10.8156 14.92 11.6111C13 12.4089 10.7934 11.49 9.99113 9.55669C9.1878 7.62447 10.0922 5.41224 12.0122 4.61558C12.4707 4.42672 12.9618 4.33008 13.4576 4.33119C13.9534 4.3323 14.4441 4.43113 14.9017 4.62204C15.3593 4.81296 15.7747 5.0922 16.1243 5.4438C16.4738 5.7954 16.7507 6.21246 16.9389 6.67113Z" fill="#FFE51E"/>
<path d="M20.1255 16.9567L20.8355 19.7767C21.1222 20.9167 20.9122 21.84 22.5922 21.9044C23.7655 21.9489 25.3511 19.8533 25.0644 18.7122L24.3555 15.8922L20.1255 16.9567Z" fill="#F3D2A2"/>
<path d="M20.1255 16.9567L20.9411 20.2833C24.4211 18.7956 24.5367 16.1511 24.5367 16.1511L20.1255 16.9567Z" fill="#E2C196"/>
<path d="M14.0244 5.28662C14.0244 5.28662 15.5311 8.91218 12.2955 10.76L14.0166 14.9022C15.4278 18.2933 17.35 20.7233 20.7455 19.3111C24.1422 17.9 27.7211 13.1855 26.31 9.7944L24.8866 6.36551C17.1911 9.26329 14.0244 5.28662 14.0244 5.28662Z" fill="#F3D2A2"/>
<path d="M15.2211 16.4033L14.7911 16.5822C14.746 16.6029 14.6971 16.6143 14.6475 16.6158C14.5979 16.6172 14.5485 16.6087 14.5022 16.5906C14.456 16.5726 14.4138 16.5454 14.3783 16.5107C14.3428 16.4761 14.3146 16.4346 14.2954 16.3888C14.2762 16.343 14.2665 16.2938 14.2667 16.2442C14.267 16.1945 14.2772 16.1454 14.2968 16.0998C14.3164 16.0542 14.345 16.013 14.3808 15.9787C14.4167 15.9443 14.4591 15.9176 14.5055 15.9L14.9366 15.7211C15.0271 15.6834 15.1289 15.6831 15.2195 15.7204C15.3101 15.7577 15.3823 15.8295 15.42 15.92C15.4577 16.0104 15.4579 16.1122 15.4206 16.2028C15.3833 16.2935 15.3116 16.3656 15.2211 16.4033Z" fill="#BF6952"/>
<path d="M15.4322 13.5134C15.2511 13.5882 15.0477 13.5883 14.8665 13.5135C14.6854 13.4387 14.5412 13.2953 14.4656 13.1145L14.18 12.43C14.1089 12.2493 14.1117 12.048 14.1875 11.8692C14.2634 11.6905 14.4064 11.5487 14.5858 11.4743C14.7651 11.3999 14.9665 11.3989 15.1466 11.4714C15.3268 11.544 15.4712 11.6843 15.5489 11.8623L15.8333 12.5467C15.8705 12.6365 15.8896 12.7328 15.8895 12.8299C15.8895 12.9271 15.8703 13.0234 15.833 13.1131C15.7958 13.2029 15.7412 13.2844 15.6724 13.3531C15.6037 13.4218 15.522 13.4762 15.4322 13.5134Z" fill="#662113"/>
<path d="M15.8055 18.08C16.1455 18.4912 16.5167 18.8356 16.9167 19.1034C18.39 18.2534 18.4922 16.9634 18.4922 16.9634L15.8755 18.0512L15.8055 18.08Z" fill="#DF1F32"/>
<path d="M20.1244 13.3444L18.0878 10.0622C18.0878 10.0622 12.4611 11.4433 10.7767 8.22998C9.09221 5.01776 13.3855 2.02887 16.2722 1.01332C19.1589 -0.00335029 23.7978 -1.21891 26.6411 4.63665C29.2744 10.0611 25.8855 14.7433 24.8967 16.0011C24.8967 16.0011 23.4555 14.8755 23.04 14.0555C22.6244 13.2344 23.2311 11.1533 22.3178 10.5044C21.45 9.88887 19.5755 10.52 20.1244 13.3444Z" fill="#FFE51E"/>
<path d="M25.8955 5.82445C25.1378 4.23889 27.1344 1.62223 29.4889 1.86223C31.8444 2.10111 34.6133 4.43889 33.4622 7.51223C32.3633 10.4511 33.1878 12.7144 35.4633 12.6378C35.4633 12.6378 34.1611 14.4322 31.9433 13.1267C29.6289 11.7656 30.94 7.46111 29.2755 6.59778C28.44 6.16334 27.3322 6.03667 26.8855 6.56C26.4422 7.08223 25.8955 5.82445 25.8955 5.82445Z" fill="#FFE51E"/>
<path d="M18.3534 35.9634C19.5811 35.9712 22.7289 35.5645 24.8167 35.0478C23.1978 33.9434 19.3211 31.3345 17.6389 30.52C15.4856 29.4778 11.4589 26.0067 10.66 25.1734C9.86113 24.34 7.95113 24.4789 6.94891 25.9367C6.23669 26.9734 5.28335 30.7656 6.94446 33.8189C8.88557 37.3878 12.2434 39.9734 16.66 39.9734C17.8267 39.9734 18.8578 39.8245 19.7722 39.5867C17.2689 39.3445 16.8767 35.9545 18.3534 35.9634Z" fill="#77B255"/>
<path d="M20 40H17.15C14.8233 40 11.8056 38.16 12.2967 36.4933C12.7856 34.8322 14.1345 35.9533 16.1122 35.9533C17.2234 35.9533 18.3545 35.9644 18.3545 35.9644C18.3545 35.9644 19.2422 38.6933 20 40Z" fill="#F3D2A2"/>
</svg>
