<svg width="40" height="40" viewBox="0 0 40 40" fill="none" xmlns="http://www.w3.org/2000/svg">
<path d="M33.3567 38.0711C32.9441 38.4839 32.4543 38.8114 31.9151 39.0349C31.376 39.2583 30.7981 39.3733 30.2145 39.3733C29.6308 39.3733 29.0529 39.2583 28.5138 39.0349C27.9746 38.8114 27.4848 38.4839 27.0722 38.0711L1.9289 12.9289C1.51617 12.5162 1.18878 12.0262 0.96541 11.487C0.742042 10.9477 0.627075 10.3698 0.627075 9.78611C0.627075 9.20244 0.742042 8.62448 0.96541 8.08524C1.18878 7.54601 1.51617 7.05604 1.9289 6.64334L6.64335 1.93C7.05606 1.51727 7.54602 1.18988 8.08526 0.966509C8.6245 0.74314 9.20245 0.628174 9.78613 0.628174C10.3698 0.628174 10.9478 0.74314 11.487 0.966509C12.0262 1.18988 12.5162 1.51727 12.9289 1.93L38.0689 27.0722C38.9023 27.9055 39.3705 29.0357 39.3707 30.2142C39.3709 31.3927 38.9031 32.5231 38.07 33.3567L33.3567 38.0711Z" fill="#FFCC4D"/>
<path d="M10.5722 7.43007C10.3638 7.63841 10.081 7.75539 9.7863 7.75529C9.49155 7.75519 9.20892 7.638 9.00058 7.42951C8.79224 7.22102 8.67525 6.93831 8.67535 6.64356C8.67546 6.34882 8.79264 6.06619 9.00113 5.85784L12.93 1.92896L14.5011 3.50118L10.5722 7.43007ZM16.8567 9.00118C16.6483 9.20952 16.3658 9.32656 16.0711 9.32656C15.7765 9.32656 15.4939 9.20952 15.2856 9.00118C15.0772 8.79283 14.9602 8.51026 14.9602 8.21562C14.9602 7.92098 15.0772 7.63841 15.2856 7.43007L16.8578 5.85784L18.4289 7.43007L16.8567 9.00118ZM18.4289 15.2856C18.3258 15.3888 18.2033 15.4706 18.0685 15.5264C17.9337 15.5823 17.7892 15.611 17.6434 15.611C17.4975 15.611 17.353 15.5823 17.2182 15.5264C17.0834 15.4706 16.961 15.3888 16.8578 15.2856C16.7546 15.1825 16.6728 15.06 16.617 14.9252C16.5611 14.7904 16.5324 14.646 16.5324 14.5001C16.5324 14.3542 16.5611 14.2097 16.617 14.0749C16.6728 13.9401 16.7546 13.8177 16.8578 13.7145L20.7867 9.78562C21.3267 10.3256 21.8189 10.8167 22.3578 11.3578L18.4289 15.2856ZM24.7134 16.8567C24.6104 16.96 24.488 17.0419 24.3533 17.0978C24.2186 17.1537 24.0742 17.1824 23.9284 17.1824C23.7825 17.1824 23.6381 17.1537 23.5034 17.0978C23.3687 17.0419 23.2464 16.96 23.1434 16.8567C23.04 16.7537 22.9579 16.6313 22.9019 16.4965C22.8459 16.3617 22.8171 16.2171 22.8171 16.0712C22.8171 15.9252 22.8459 15.7807 22.9019 15.6459C22.9579 15.5111 23.04 15.3886 23.1434 15.2856L24.7145 13.7134C25.2534 14.2545 25.7456 14.7445 26.2856 15.2856L24.7134 16.8567ZM26.2856 23.1423C26.0772 23.3508 25.7946 23.468 25.4999 23.4681C25.2051 23.4682 24.9224 23.3512 24.7139 23.1428C24.5054 22.9345 24.3882 22.6519 24.3881 22.3571C24.388 22.0624 24.505 21.7797 24.7134 21.5712L28.6422 17.6434L30.2134 19.2145L26.2856 23.1423ZM34.1422 30.999C34.0392 31.1022 33.9169 31.1841 33.7822 31.24C33.6475 31.2959 33.5031 31.3246 33.3572 31.3246C33.2114 31.3246 33.067 31.2959 32.9323 31.24C32.7976 31.1841 32.6752 31.1022 32.5722 30.999C32.4688 30.896 32.3866 30.7736 32.3306 30.6389C32.2745 30.5041 32.2456 30.3596 32.2454 30.2136C32.2453 30.0677 32.2741 29.9231 32.33 29.7883C32.3858 29.6534 32.4678 29.5309 32.5711 29.4278L36.5 25.5001L38.0711 27.0712L34.1422 30.999ZM32.57 24.7134C32.4682 24.822 32.3456 24.909 32.2094 24.9693C32.0733 25.0296 31.9264 25.0619 31.7776 25.0643C31.6287 25.0667 31.4809 25.0392 31.3428 24.9834C31.2048 24.9276 31.0794 24.8446 30.9741 24.7393C30.8688 24.6341 30.7857 24.5087 30.7298 24.3708C30.6739 24.2328 30.6462 24.085 30.6485 23.9361C30.6509 23.7872 30.6831 23.6404 30.7433 23.5042C30.8034 23.368 30.8904 23.2453 30.9989 23.1434L32.5711 21.5723L34.1411 23.1423L32.57 24.7134Z" fill="#292F33"/>
</svg>
