<svg width="40" height="40" viewBox="0 0 40 40" fill="none" xmlns="http://www.w3.org/2000/svg">
<path d="M40 20.5555C40 18.7344 38.9222 17.2177 37.4744 16.7944C35.9633 8.50883 28.7222 2.22217 20 2.22217C11.2778 2.22217 4.03667 8.50883 2.52556 16.7944C1.07778 17.2177 0 18.7344 0 20.5555C0 22.4844 1.20778 24.0755 2.78889 24.3799C4.74333 32.0755 11.6967 37.7777 20 37.7777C28.3033 37.7777 35.2567 32.0755 37.2111 24.3799C38.7911 24.0755 40 22.4844 40 20.5555Z" fill="#FFDC5D"/>
<path d="M20 27.7778C16.6667 27.7778 15.5556 26.6667 15.5556 28.8889C15.5556 31.1111 17.7778 33.3333 20 33.3333C22.2222 33.3333 24.4445 31.1111 24.4445 28.8889C24.4445 26.6667 23.3334 27.7778 20 27.7778Z" fill="#662214"/>
<path d="M25 23.3334C26.5341 23.3334 27.7778 22.0897 27.7778 20.5556C27.7778 19.0215 26.5341 17.7778 25 17.7778C23.4659 17.7778 22.2222 19.0215 22.2222 20.5556C22.2222 22.0897 23.4659 23.3334 25 23.3334Z" fill="#662214"/>
<path d="M15 23.3334C16.5341 23.3334 17.7778 22.0897 17.7778 20.5556C17.7778 19.0215 16.5341 17.7778 15 17.7778C13.4659 17.7778 12.2222 19.0215 12.2222 20.5556C12.2222 22.0897 13.4659 23.3334 15 23.3334Z" fill="#662214"/>
<path d="M20 28.8889H22.2222V30C22.2222 30 22.2222 31.1111 21.1111 31.1111C20 31.1111 20 30 20 30V28.8889Z" fill="white"/>
<path d="M19.98 12.2223H19.9456C19.2976 12.2259 18.6554 12.0995 18.0571 11.8507C17.4588 11.6018 16.9165 11.2355 16.4622 10.7734C16.0523 10.3594 15.734 9.86384 15.528 9.31886C15.3221 8.77388 15.233 8.19167 15.2667 7.61004C15.2747 7.46442 15.3116 7.32184 15.3752 7.19057C15.4387 7.0593 15.5277 6.94195 15.6369 6.84532C15.7462 6.74869 15.8735 6.6747 16.0116 6.62763C16.1496 6.58057 16.2956 6.56137 16.4411 6.57115C17.0533 6.60782 17.5211 7.1356 17.4845 7.74893C17.4522 8.29893 17.6567 8.84115 18.0433 9.23337C18.2932 9.4887 18.5913 9.6918 18.9203 9.83086C19.2494 9.96991 19.6028 10.0422 19.96 10.0434C20.6856 10.0034 21.3711 9.76893 21.8878 9.26004C22.5803 8.57494 22.973 7.64319 22.9796 6.66906C22.9863 5.69492 22.6065 4.75789 21.9233 4.06337C21.0149 3.14484 19.7793 2.62408 18.4874 2.61534C17.1956 2.60659 15.953 3.11056 15.0322 4.01671C14.9283 4.11914 14.8053 4.2001 14.6701 4.25498C14.5349 4.30986 14.3903 4.33757 14.2444 4.33654C13.9497 4.33446 13.668 4.21541 13.4611 4.0056C13.2543 3.79578 13.1392 3.51238 13.1413 3.21774C13.1434 2.9231 13.2624 2.64136 13.4722 2.43449C14.8131 1.11548 16.6223 0.382029 18.5031 0.394943C20.384 0.407857 22.1829 1.16609 23.5056 2.50338C24.0484 3.05306 24.4775 3.70437 24.7685 4.42004C25.0594 5.13572 25.2063 5.90172 25.201 6.67424C25.1956 7.44676 25.038 8.21065 24.7372 8.92221C24.4364 9.63378 23.9982 10.2791 23.4478 10.8212C22.5189 11.7389 21.2867 12.2223 19.98 12.2223Z" fill="#EF9645"/>
</svg>
