<svg width="40" height="40" viewBox="0 0 40 40" fill="none" xmlns="http://www.w3.org/2000/svg">
<g clip-path="url(#clip0_39_49)">
<path d="M40 28.8889C40 30.0676 39.5317 31.1981 38.6982 32.0316C37.8648 32.8651 36.7343 33.3333 35.5556 33.3333H8.88889C7.71015 33.3333 6.57969 32.8651 5.74619 32.0316C4.9127 31.1981 4.44444 30.0676 4.44444 28.8889V7.01444C4.44444 4.56 10.8789 0 13.3333 0H34.0278C37.4656 0 40 2.56889 40 5.97222V28.8889Z" fill="#F4900C"/>
<path d="M37.7778 33.3333C37.7778 34.512 37.3095 35.6425 36.476 36.476C35.6425 37.3095 34.5121 37.7777 33.3333 37.7777H11.1111C9.93237 37.7777 8.80191 37.3095 7.96841 36.476C7.13492 35.6425 6.66667 34.512 6.66667 33.3333V6.66664C6.66667 2.08997 6.64333 2.2222 12.2222 2.2222H33.3333C34.5121 2.2222 35.6425 2.69045 36.476 3.52394C37.3095 4.35744 37.7778 5.4879 37.7778 6.66664V33.3333Z" fill="#CCD6DD"/>
<path d="M35.5556 34.4445C35.5556 35.3285 35.2044 36.1764 34.5792 36.8015C33.9541 37.4266 33.1063 37.7778 32.2222 37.7778H7.77778C6.89372 37.7778 6.04587 37.4266 5.42075 36.8015C4.79563 36.1764 4.44444 35.3285 4.44444 34.4445V7.77779C4.44444 6.89374 4.79563 6.04589 5.42075 5.42077C6.04587 4.79565 6.89372 4.44446 7.77778 4.44446H32.2222C33.1063 4.44446 33.9541 4.79565 34.5792 5.42077C35.2044 6.04589 35.5556 6.89374 35.5556 7.77779V34.4445Z" fill="#E1E8ED"/>
<path d="M35.5556 35.5555C35.5556 36.7343 35.0873 37.8647 34.2538 38.6982C33.4203 39.5317 32.2899 40 31.1111 40H10C8.82126 40 7.6908 39.5317 6.8573 38.6982C6.02381 37.8647 5.55556 36.7343 5.55556 35.5555V11.1111C5.55556 9.93233 6.02381 8.80187 6.8573 7.96837C7.6908 7.13488 8.82126 6.66663 10 6.66663H31.1111C32.2899 6.66663 33.4203 7.13488 34.2538 7.96837C35.0873 8.80187 35.5556 9.93233 35.5556 11.1111V35.5555Z" fill="#FFAC33"/>
<path d="M33.3333 35.5556C33.3333 36.7343 32.8651 37.8648 32.0316 38.6983C31.1981 39.5318 30.0676 40 28.8889 40H10C8.82126 40 7.6908 39.5318 6.8573 38.6983C6.02381 37.8648 5.55556 36.7343 5.55556 35.5556V13.3334C5.55556 12.1546 6.02381 11.0242 6.8573 10.1907C7.6908 9.35717 8.82126 8.88892 10 8.88892H29.2611C31.7156 8.88892 33.3333 10.5067 33.3333 12.9611V35.5556Z" fill="#FFCC4D"/>
<path d="M10 6.66667C8.12444 6.66667 8.07666 4.53111 8.88889 3.61111C9.81333 2.56556 11.25 2.22222 13.82 2.22222H15.5556V0H12.5344C8.12444 0 4.44444 2.77778 4.44444 5.97222V35.5556C4.44444 36.7343 4.9127 37.8648 5.74619 38.6983C6.57968 39.5317 7.71015 40 8.88889 40H11.1111V6.66667H10Z" fill="#F4900C"/>
<path d="M9.49111 36.6433C9.49111 37.4233 8.75 38.0555 7.83555 38.0555C6.92222 38.0555 6.18111 37.4233 6.18111 36.6433C6.18111 35.8644 6.92222 35.2311 7.83555 35.2311C8.75 35.2311 9.49111 35.8633 9.49111 36.6433Z" fill="#662113"/>
<path d="M7.66 35.8567C7.12667 35.9178 6.78 36.2734 6.53 36.6667C6.18889 37.2056 5.41111 37.7778 4.44444 37.7778C3.21778 37.7778 2.22222 37.0322 2.22222 36.1111C2.22222 35.19 3.21778 34.4445 4.44444 34.4445V32.2267C2.03667 32.25 0.0922222 33.9767 0.0922222 36.1111C0.0922222 38.26 2.06111 40 4.49 40C6.55 40 8.20889 38.8389 8.82444 37.1456C9.13222 36.3022 8.30333 35.7856 7.66 35.8567Z" fill="#66757F"/>
<path d="M9.49111 27.7544C9.49111 28.5344 8.75 29.1666 7.83555 29.1666C6.92222 29.1666 6.18111 28.5344 6.18111 27.7544C6.18111 26.9755 6.92222 26.3422 7.83555 26.3422C8.75 26.3422 9.49111 26.9744 9.49111 27.7544Z" fill="#662113"/>
<path d="M7.66 26.9678C7.12667 27.0289 6.78 27.3844 6.53 27.7778C6.18889 28.3167 5.41111 28.8889 4.44444 28.8889C3.21778 28.8889 2.22222 28.1433 2.22222 27.2222C2.22222 26.3011 3.21778 25.5555 4.44444 25.5555V23.3378C2.03667 23.3611 0.0922222 25.0878 0.0922222 27.2222C0.0922222 29.3711 2.06111 31.1111 4.49 31.1111C6.55 31.1111 8.20889 29.95 8.82444 28.2567C9.13222 27.4133 8.30333 26.8967 7.66 26.9678Z" fill="#66757F"/>
<path d="M9.49111 18.8656C9.49111 19.6456 8.75 20.2778 7.83555 20.2778C6.92222 20.2778 6.18111 19.6456 6.18111 18.8656C6.18111 18.0867 6.92222 17.4534 7.83555 17.4534C8.75 17.4534 9.49111 18.0856 9.49111 18.8656Z" fill="#662113"/>
<path d="M7.66 18.0789C7.12667 18.14 6.78 18.4955 6.53 18.8889C6.18889 19.4277 5.41111 20 4.44444 20C3.21778 20 2.22222 19.2544 2.22222 18.3333C2.22222 17.4122 3.21778 16.6666 4.44444 16.6666V14.4489C2.03667 14.4722 0.0922222 16.1989 0.0922222 18.3333C0.0922222 20.4822 2.06111 22.2222 4.49 22.2222C6.55 22.2222 8.20889 21.0611 8.82444 19.3677C9.13222 18.5244 8.30333 18.0077 7.66 18.0789Z" fill="#66757F"/>
<path d="M9.49111 9.97668C9.49111 10.7567 8.75 11.3889 7.83555 11.3889C6.92222 11.3889 6.18111 10.7567 6.18111 9.97668C6.18111 9.19779 6.92222 8.56445 7.83555 8.56445C8.75 8.56445 9.49111 9.19668 9.49111 9.97668Z" fill="#662113"/>
<path d="M7.66 9.19006C7.12667 9.25117 6.78 9.60672 6.53 10.0001C6.18889 10.5389 5.41111 11.1112 4.44444 11.1112C3.21778 11.1112 2.22222 10.3656 2.22222 9.4445C2.22222 8.52339 3.21778 7.77784 4.44444 7.77784V5.56006C2.03778 5.58228 0.0922222 7.31006 0.0922222 9.4445C0.0922222 11.5934 2.06111 13.3334 4.49 13.3334C6.55 13.3334 8.20889 12.1723 8.82444 10.4789C9.13222 9.63561 8.30333 9.11895 7.66 9.19006Z" fill="#66757F"/>
</g>
<defs>
<clipPath id="clip0_39_49">
<rect width="40" height="40" fill="white"/>
</clipPath>
</defs>
</svg>
