<svg width="1281" height="714" viewBox="0 0 1281 714" fill="none" xmlns="http://www.w3.org/2000/svg">
<path d="M1279.5 0.5C1279.5 0.5 1190.5 54.5 1190.5 145.5C1190.5 216.462 1250.69 253 1265.85 343C1281 433 1203.5 467 1203.5 526C1203.5 585 1286.19 617 1254.5 669C1222.81 721 1089.53 629.093 867 697.5C644.468 765.907 381.567 573.889 213.542 648.571C143.089 679.886 71.5619 672.815 1.5 655" stroke="#F70E62" stroke-width="2" stroke-linecap="round" stroke-linejoin="round"/>
<path d="M1279 -2C1279 -2 1257 562 1063 530C895.706 502.405 690.116 721.453 483.731 699.78C338.015 684.479 297.067 615.594 140.882 615.594C72.4652 615.594 37.4336 636.278 0.5 655.5" stroke="#F70E62" stroke-width="2"/>
</svg>
