<svg width="36" height="36" viewBox="0 0 36 36" fill="none" xmlns="http://www.w3.org/2000/svg">
<path d="M33 8.694C31.8766 9.19196 30.6848 9.51859 29.4645 9.663C30.7503 8.89418 31.7126 7.68396 32.172 6.258C30.9639 6.9757 29.6418 7.48102 28.263 7.752C27.4182 6.85263 26.3227 6.22783 25.1185 5.95861C23.9143 5.68939 22.657 5.78817 21.5096 6.24214C20.3622 6.69611 19.3777 7.48433 18.6837 8.50459C17.9897 9.52484 17.6183 10.7301 17.6175 11.964C17.6167 12.436 17.6695 12.9065 17.775 13.3665C15.3281 13.2437 12.9344 12.6077 10.7493 11.4999C8.56413 10.392 6.63632 8.8371 5.091 6.936C4.30389 8.29103 4.06275 9.89509 4.41666 11.4217C4.77058 12.9482 5.69294 14.2825 6.996 15.153C6.01789 15.123 5.06119 14.8592 4.206 14.3835V14.4615C4.20624 15.8827 4.69809 17.2601 5.59812 18.36C6.49815 19.4598 7.75095 20.2145 9.144 20.496C8.61552 20.6397 8.07016 20.7118 7.5225 20.7105C7.13348 20.7107 6.74529 20.6745 6.363 20.6025C6.75608 21.8252 7.52139 22.8946 8.55197 23.6611C9.58255 24.4275 10.8269 24.8528 12.111 24.8775C9.53013 26.8975 6.25412 27.8128 3 27.423C5.81408 29.232 9.08962 30.1923 12.435 30.189C14.7386 30.2046 17.0224 29.7623 19.1537 28.8878C21.285 28.0134 23.2213 26.7242 24.8502 25.0952C26.4791 23.4661 27.7681 21.5297 28.6424 19.3983C29.5167 17.267 29.9587 14.9831 29.943 12.6795C29.943 12.4125 29.9365 12.1475 29.9235 11.8845C31.1303 11.0121 32.1721 9.93173 33 8.694Z" fill="#F70E62" fill-opacity="0.3"/>
</svg>
